# xmcd
#
# Track frame offsets:
#   183
#   19198
#   37728
#   55825
#   74595
#   94120
#   112260
#   125528
#   144445
#   162830
#   180883
#   195995
#   217935
#
# Disc length: 3155 seconds
#
# Revision: 1
# Processed by: cddbd v1.5PL3 Copyright (c) Steve Scherf et al.
# Submitted via: Media_Universe 3.0
#
DISCID=ac0c510d
DTITLE=Udo Jürgens - Café Grossenwahn
DYEAR=1993
DGENRE=Schlager
TTITLE0=Was dich nicht umbringt gibt dir neue Kraft
TTITLE1=Leben in blue Jeans
TTITLE2=Du und ich
TTITLE3=Keine war so wie du
TTITLE4=Madonna in der Hölle
TTITLE5=Stille Nacht
TTITLE6=Kurze unterbrechung
TTITLE7=Café Groszenwahn
TTITLE8=Vater und Sohn
TTITLE9=Wasser unter der Brücken
TTITLE10=Näher zu dir
TTITLE11=Engel der Melancholie
TTITLE12=und es gibt dich
EXTD=
EXTT0=
EXTT1=
EXTT2=
EXTT3=
EXTT4=
EXTT5=
EXTT6=
EXTT7=
EXTT8=
EXTT9=
EXTT10=
EXTT11=
EXTT12=
PLAYORDER=
